<?xml version="1.0" encoding="utf-8"?>
<!-- Generator: Adobe Illustrator 26.0.2, SVG Export Plug-In . SVG Version: 6.00 Build 0)  -->
<svg version="1.1" id="Capa_1" xmlns="http://www.w3.org/2000/svg" xmlns:xlink="http://www.w3.org/1999/xlink" x="0px" y="0px"
	 viewBox="0 0 154 154" style="enable-background:new 0 0 154 154;" xml:space="preserve">
<style type="text/css">
	.st0{fill-rule:evenodd;clip-rule:evenodd;fill:#E30613;}
	.st1{fill-rule:evenodd;clip-rule:evenodd;fill:#1D1D1B;}
</style>
<g>
	<g>
		<path class="st0" d="M12.1,69.6c2.6,0.1,4.3,0,4.3,3c0,3.5-1.3,3.3-4.3,3.3V69.6z M12.1,59.5c2.1,0,3.9-0.1,3.9,2.4
			c0,3-1.2,2.9-3.9,3V59.5z M14.5,80.5c4.9,0,7.8-2.2,7.8-7.4c0-3.2-0.6-4.6-3.3-6.1v-0.1c2.1-1.1,2.9-3.2,2.9-5.4
			c0-5.2-3.6-6.6-8.1-6.6H6v25.7H14.5z"/>
		<polygon class="st0" points="39.1,80.5 39.1,75.4 30.9,75.4 30.9,69.8 38.4,69.8 38.4,64.7 30.9,64.7 30.9,60 38.7,60 38.7,54.8 
			24.9,54.8 24.9,80.5 		"/>
		<path class="st0" d="M57.8,63.8v-2.2c0-5.2-3.1-7.4-8.2-7.4c-5.5,0-8.1,2.6-8.1,8.2V73c0,5.2,2.2,8.2,7.7,8.2
			c6.2,0,8.7-3.1,8.7-7.5v-3.2h-6v2.3c0,1.6-0.2,3.7-2.2,3.7c-1.6,0-2.2-0.9-2.2-2.3l0-12.7c0-1.7,0.4-2.7,2.3-2.7
			c1.1,0,1.9,1.1,1.9,3.3v1.6H57.8z"/>
		<polygon class="st0" points="66.5,80.5 66.5,74.2 67.8,71.6 71.1,80.5 77.5,80.5 71.7,66.2 77.1,54.8 71,54.8 66.5,65.1 
			66.5,65.1 66.5,54.8 60.4,54.8 60.4,80.5 		"/>
		<polygon class="st0" points="85.1,80.5 85.1,69.8 89.3,69.8 89.3,80.5 95.3,80.5 95.3,54.8 89.3,54.8 89.3,64.7 85.1,64.7 
			85.1,54.8 79.1,54.8 79.1,80.5 		"/>
		<path class="st0" d="M108.2,72.8c0,1.5-0.1,3.7-2.1,3.7c-2,0-2.2-2.2-2.2-3.7V62.3c0-1.6,0.2-3.5,2.2-3.5c2,0,2.1,1.9,2.1,3.5
			V72.8z M114.2,61.9c0-4.9-2.8-7.7-8.1-7.7c-5.3,0-8.2,2.7-8.2,7.7v10.4c0,5.8,2.1,8.8,8.2,8.8c6.1,0,8.1-3,8.1-8.8V61.9z"/>
		<polygon class="st0" points="123,80.5 123,69.7 130.5,69.7 130.5,64.5 123,64.5 123,60 131.1,60 131.1,54.8 116.9,54.8 
			116.9,80.5 		"/>
		<polygon class="st0" points="139.8,80.5 139.8,69.7 147.3,69.7 147.3,64.5 139.8,64.5 139.8,60 148,60 148,54.8 133.8,54.8 
			133.8,80.5 		"/>
	</g>
	<g>
		<polygon class="st1" points="6,97.1 7.4,97.1 7.4,90.7 7.5,90.7 10.2,97.1 12,97.1 12,88.8 10.6,88.8 10.6,95.4 10.6,95.4 
			7.9,88.8 6,88.8 		"/>
		<path class="st1" d="M18,95.7c-0.3,0.2-0.7,0.5-1.6,0.5c-1.1,0-1.6-0.6-1.6-1.7h3.5v-0.3c0-2.5-1.1-3.3-2.5-3.3
			c-1.6,0-2.5,1.4-2.5,3.2c0,1.7,0.9,3.1,2.8,3.1c0.9,0,1.5-0.3,1.8-0.4L18,95.7z M14.8,93.5c0-0.8,0.3-1.6,1.1-1.6
			c0.7,0,1,0.5,1,1.6H14.8z"/>
		<polygon class="st1" points="24.4,97.1 26,97.1 27.6,91 26.2,91 25.2,95.8 25.2,95.8 24.1,91 22.5,91 21.4,95.8 21.4,95.8 
			20.4,91 18.9,91 20.5,97.1 22.2,97.1 23.2,92.4 23.3,92.4 		"/>
		<path class="st1" d="M32.6,94l1.1-3.9h0l1,3.9H32.6z M35.7,97.1h1.6l-2.7-8.3h-1.7l-2.8,8.3h1.5l0.6-2h2.9L35.7,97.1z"/>
		<path class="st1" d="M42.9,91h-1.5v3.5c0,0.8-0.2,1.5-1,1.5c-0.6,0-0.9-0.4-0.9-1.3V91H38v4c0,1.2,0.4,2.3,1.8,2.3
			c1,0,1.3-0.6,1.6-1l0,0l0,0c0,0.3,0,0.6,0,0.9h1.4c0-0.3,0-0.6,0-1V91z"/>
		<path class="st1" d="M44.7,91h-1v1.1h1v3.4c0,1.3,0.6,1.8,1.7,1.8c0.4,0,0.8-0.1,1-0.2v-1c-0.1,0.1-0.3,0.1-0.6,0.1
			c-0.4,0-0.7-0.2-0.7-0.8v-3.2h1.2V91h-1.2v-1.7l-1.5,0.5V91z"/>
		<path class="st1" d="M49.7,94.1c0-1,0.2-2.1,1.2-2.1c1,0,1.2,1.1,1.2,2.1c0,1-0.2,2.1-1.2,2.1C50,96.2,49.7,95.1,49.7,94.1z
			 M48.2,94.1c0,2.6,1.5,3.2,2.7,3.2c1.2,0,2.7-0.6,2.7-3.2c0-2.5-1.4-3.2-2.7-3.2C49.7,90.9,48.2,91.6,48.2,94.1z"/>
		<path class="st1" d="M54.7,97.1h1.5v-3.7c0-0.7,0.3-1.3,1-1.3c0.5,0,0.8,0.4,0.8,1.1v3.9h1.5v-3.7c0-0.7,0.3-1.3,1-1.3
			c0.5,0,0.8,0.4,0.8,1.1v3.9h1.5v-3.8c0-1.5-0.4-2.4-1.8-2.4c-0.9,0-1.3,0.5-1.6,1c-0.2-0.3-0.5-1-1.5-1c-0.8,0-1.3,0.6-1.5,1.1h0
			c0-0.3,0-0.6,0-1h-1.5c0,0.2,0,0.6,0,1V97.1z"/>
		<path class="st1" d="M64.4,92.6c0.3-0.2,0.9-0.6,1.7-0.6c0.8,0,1.1,0.6,1.1,1.2v0.2h-0.3c-1.9,0-3.2,0.4-3.2,2.1
			c0,1.1,0.9,1.8,1.8,1.8c0.9,0,1.3-0.4,1.7-0.9h0c0,0.3,0,0.6,0.1,0.8h1.3c0-0.2-0.1-0.6-0.1-1.1v-2.7c0-1.5-0.4-2.5-2.3-2.5
			c-0.9,0-1.5,0.3-1.9,0.5L64.4,92.6z M67.2,94.5c0,1.1-0.3,1.7-1.2,1.7c-0.6,0-0.9-0.4-0.9-0.9c0-0.9,0.7-1.2,2-1.2h0.1V94.5z"/>
		<path class="st1" d="M70.5,91h-1v1.1h1v3.4c0,1.3,0.6,1.8,1.7,1.8c0.4,0,0.8-0.1,1-0.2v-1c-0.1,0.1-0.3,0.1-0.6,0.1
			c-0.4,0-0.7-0.2-0.7-0.8v-3.2h1.2V91H72v-1.7l-1.5,0.5V91z"/>
		<path class="st1" d="M74.3,97.1h1.5V91h-1.5V97.1z M74.3,89.9h1.5v-1.5h-1.5V89.9z"/>
		<path class="st1" d="M78.6,94.1c0-1,0.2-2.1,1.2-2.1c1,0,1.2,1.1,1.2,2.1c0,1-0.2,2.1-1.2,2.1C78.8,96.2,78.6,95.1,78.6,94.1z
			 M77.1,94.1c0,2.6,1.5,3.2,2.7,3.2c1.2,0,2.7-0.6,2.7-3.2c0-2.5-1.4-3.2-2.7-3.2C78.5,90.9,77.1,91.6,77.1,94.1z"/>
		<path class="st1" d="M83.6,97.1h1.5v-3.6c0-0.8,0.3-1.4,1-1.4c0.6,0,0.8,0.4,0.8,1.3v3.7h1.5v-4c0-1.2-0.4-2.3-1.8-2.3
			c-1,0-1.4,0.7-1.6,1h0h0c0-0.3,0-0.6,0-0.9h-1.4c0,0.3,0,0.6,0,1V97.1z"/>
		<polygon class="st1" points="93.7,97.1 95.2,97.1 95.2,90 97,90 97,88.8 91.8,88.8 91.8,90 93.7,90 		"/>
		<path class="st1" d="M101.4,95.7c-0.3,0.2-0.7,0.5-1.6,0.5c-1.1,0-1.6-0.6-1.6-1.7h3.5v-0.3c0-2.5-1.1-3.3-2.5-3.3
			c-1.6,0-2.5,1.4-2.5,3.2c0,1.7,0.9,3.1,2.8,3.1c0.9,0,1.5-0.3,1.8-0.4L101.4,95.7z M98.2,93.5c0-0.8,0.3-1.6,1.1-1.6
			c0.7,0,1,0.5,1,1.6H98.2z"/>
		<path class="st1" d="M107,95.8c-0.2,0.1-0.7,0.3-1,0.3c-1.1,0-1.7-0.9-1.7-2c0-1.3,0.5-2.1,1.6-2.1c0.4,0,0.8,0.2,1,0.3l0.1-1.2
			c-0.3-0.1-0.8-0.2-1.3-0.2c-2.1,0-3,1.4-3,3.2c0,1.7,0.9,3.2,2.9,3.2c0.6,0,1.1-0.1,1.5-0.2L107,95.8z"/>
		<path class="st1" d="M108,97.1h1.5v-3.6c0-0.8,0.3-1.4,1-1.4c0.6,0,0.8,0.4,0.8,1.3v3.7h1.5v-4c0-1.2-0.4-2.3-1.8-2.3
			c-0.9,0-1.3,0.5-1.5,0.9h0v-3.6H108V97.1z"/>
		<path class="st1" d="M114.1,97.1h1.5v-3.6c0-0.8,0.3-1.4,1-1.4c0.6,0,0.8,0.4,0.8,1.3v3.7h1.5v-4c0-1.2-0.4-2.3-1.8-2.3
			c-1,0-1.4,0.7-1.6,1h0h0c0-0.3,0-0.6,0-0.9h-1.4c0,0.3,0,0.6,0,1V97.1z"/>
		<path class="st1" d="M121.7,94.1c0-1,0.2-2.1,1.2-2.1c1,0,1.2,1.1,1.2,2.1c0,1-0.2,2.1-1.2,2.1C121.9,96.2,121.7,95.1,121.7,94.1z
			 M120.1,94.1c0,2.6,1.5,3.2,2.7,3.2c1.2,0,2.7-0.6,2.7-3.2c0-2.5-1.4-3.2-2.7-3.2C121.6,90.9,120.1,91.6,120.1,94.1z"/>
		<rect x="126.8" y="88.2" class="st1" width="1.5" height="8.9"/>
		<path class="st1" d="M131.1,94.1c0-1,0.2-2.1,1.2-2.1c1,0,1.2,1.1,1.2,2.1c0,1-0.2,2.1-1.2,2.1C131.4,96.2,131.1,95.1,131.1,94.1z
			 M129.6,94.1c0,2.6,1.5,3.2,2.7,3.2s2.7-0.6,2.7-3.2c0-2.5-1.4-3.2-2.7-3.2S129.6,91.6,129.6,94.1z"/>
		<path class="st1" d="M137.5,94c0-1.2,0.3-2,1.1-2c0.7,0,1.2,0.7,1.2,2c0,1.4-0.4,2.1-1.3,2.1C138,96.1,137.5,95.4,137.5,94z
			 M136.3,99.4c0.4,0.1,1.1,0.4,2.1,0.4c2.2,0,2.8-1.4,2.8-3.3V92c0-0.3,0-0.6,0-1h-1.3c0,0.3,0,0.6,0,1h0c-0.3-0.5-0.7-1-1.6-1
			c-1.6,0-2.2,1.5-2.2,3.2c0,2.5,1.3,3,2.1,3c1,0,1.4-0.6,1.6-1h0v0.6c0,1-0.2,1.9-1.6,1.9c-0.8,0-1.5-0.3-1.8-0.5L136.3,99.4z"/>
		<path class="st1" d="M143.5,91h-1.5l2,6.2l-0.1,0.5c-0.2,0.6-0.4,0.9-0.8,0.9c-0.2,0-0.4-0.1-0.6-0.1l-0.1,1.1
			c0.2,0.1,0.5,0.2,0.9,0.2c1,0,1.5-0.6,1.7-1.5l2.2-7.3h-1.4l-1.2,4.6h0L143.5,91z"/>
	</g>
</g>
</svg>
